<svg width="100" height="100" viewBox="0 0 100 100" xmlns="http://www.w3.org/2000/svg">
  <defs>
    <linearGradient id="busGradient" x1="0%" y1="0%" x2="100%" y2="100%">
      <stop offset="0%" style="stop-color:hsl(var(--primary));stop-opacity:1" />
      <stop offset="100%" style="stop-color:hsl(var(--secondary));stop-opacity:1" />
    </linearGradient>
  </defs>
  
  <path 
    fill="url(#busGradient)" 
    d="M85,35 H45 c-5.52,0 -10,4.48 -10,10 v30 c0,5.52 4.48,10 10,10 h40 c5.52,0 10,-4.48 10,-10 v-20 l-10,-10 Z" 
  />
  
  <path 
    fill="url(#busGradient)" 
    d="M40,35 H20 c-8.28,0 -15,6.72 -15,15 v10 c0,8.28 6.72,15 15,15 h5 l5,-10 h-5 c-2.76,0 -5,-2.24 -5,-5 v-10 c0,-2.76 2.24,-5 5,-5 h15 Z"
  />

  <circle cx="35" cy="85" r="8" fill="hsl(var(--foreground))" />
  <circle cx="75" cy="85" r="8" fill="hsl(var(--foreground))" />

  <rect x="55" y="25" width="20" height="10" rx="5" fill="url(#busGradient)" />
</svg>
