<svg width="256" height="256" viewBox="0 0 256 256" fill="none" xmlns="http://www.w3.org/2000/svg">
<rect width="256" height="256" fill="#2D1B69"/>
<path d="M192 176H184C181.791 176 180 177.791 180 180V188C180 190.209 181.791 192 184 192H192C194.209 192 196 190.209 196 188V180C196 177.791 194.209 176 192 176Z" stroke="white" stroke-width="12" stroke-linecap="round" stroke-linejoin="round"/>
<path d="M80 176H72C69.7909 176 68 177.791 68 180V188C68 190.209 69.7909 192 72 192H80C82.2091 192 84 190.209 84 188V180C84 177.791 82.2091 176 80 176Z" stroke="white" stroke-width="12" stroke-linecap="round" stroke-linejoin="round"/>
<path d="M212 112H52C47.5817 112 44 115.582 44 120V176H68" stroke="white" stroke-width="12" stroke-linecap="round" stroke-linejoin="round"/>
<path d="M84 176H180" stroke="white" stroke-width="12" stroke-linecap="round" stroke-linejoin="round"/>
<path d="M196 176H212V140C212 124 200 112 188 112" stroke="white" stroke-width="12" stroke-linecap="round" stroke-linejoin="round"/>
<path d="M44 140V120H156" stroke="white" stroke-width="12" stroke-linecap="round" stroke-linejoin="round"/>
<path d="M156 112V84C156 75.1634 148.837 68 140 68H88C79.1634 68 72 75.1634 72 84V112" stroke="white" stroke-width="12" stroke-linecap="round" stroke-linejoin="round"/>
<path d="M164 140H212" stroke="white" stroke-width="12" stroke-linecap="round" stroke-linejoin="round"/>
</svg>
